<?xml version="1.0" encoding="utf-8"?>
<!-- Generator: Adobe Illustrator 16.0.0, SVG Export Plug-In . SVG Version: 6.00 Build 0)  -->
<!DOCTYPE svg PUBLIC "-//W3C//DTD SVG 1.1//EN" "http://www.w3.org/Graphics/SVG/1.1/DTD/svg11.dtd">
<svg version="1.1" id="Camada_1" xmlns="http://www.w3.org/2000/svg" xmlns:xlink="http://www.w3.org/1999/xlink" x="0px" y="0px"
	 width="32px" height="32px" viewBox="0 0 32 32" enable-background="new 0 0 32 32" xml:space="preserve">
<path fill="#FFFFFF" d="M25.648,14.301c-0.234-0.247-0.533-0.371-0.898-0.371h-1.562c-0.156-0.573-0.365-1.094-0.625-1.562
	l1.094-1.094c0.234-0.234,0.352-0.521,0.352-0.859c0-0.364-0.117-0.664-0.352-0.898l-1.172-1.172
	c-0.234-0.234-0.527-0.352-0.879-0.352s-0.645,0.117-0.879,0.352l-1.094,1.094c-0.469-0.261-0.99-0.469-1.562-0.625V7.25
	c0-0.364-0.123-0.664-0.371-0.898S17.158,6,16.82,6H15.18c-0.338,0-0.631,0.117-0.879,0.352S13.93,6.886,13.93,7.25v1.562
	c-0.573,0.156-1.094,0.364-1.562,0.625l-1.094-1.094c-0.234-0.234-0.527-0.352-0.879-0.352S9.75,8.109,9.516,8.344L8.344,9.516
	c-0.26,0.261-0.391,0.56-0.391,0.898s0.13,0.625,0.391,0.859l1.094,1.094c-0.26,0.469-0.469,0.989-0.625,1.562H7.25
	c-0.365,0-0.664,0.117-0.898,0.352S6,14.815,6,15.18v1.641c0,0.339,0.117,0.632,0.352,0.879S6.885,18.07,7.25,18.07h1.562
	c0.156,0.573,0.365,1.094,0.625,1.562l-1.094,1.094c-0.26,0.261-0.391,0.547-0.391,0.859c0,0.339,0.13,0.638,0.391,0.898
	l1.172,1.172c0.234,0.234,0.527,0.352,0.879,0.352s0.645-0.117,0.879-0.352l1.094-1.094c0.469,0.261,0.99,0.469,1.562,0.625v1.562
	c0,0.364,0.124,0.664,0.371,0.898S14.841,26,15.18,26h1.641c0.338,0,0.631-0.117,0.879-0.352s0.371-0.534,0.371-0.898v-1.562
	c0.572-0.156,1.094-0.364,1.562-0.625l1.094,1.094c0.234,0.234,0.527,0.352,0.879,0.352s0.645-0.117,0.879-0.352l1.172-1.172
	c0.26-0.261,0.391-0.56,0.391-0.898s-0.131-0.625-0.391-0.859l-1.094-1.094c0.26-0.469,0.469-0.989,0.625-1.562h1.562
	c0.365,0,0.664-0.117,0.898-0.352S26,17.185,26,16.82V15.18C26,14.841,25.883,14.548,25.648,14.301z M19.32,16
	c0,0.911-0.326,1.692-0.977,2.344S16.912,19.32,16,19.32c-0.912,0-1.693-0.325-2.344-0.977S12.68,16.911,12.68,16
	s0.326-1.692,0.977-2.344S15.088,12.68,16,12.68c0.912,0,1.693,0.325,2.344,0.977S19.32,15.089,19.32,16z"/>
</svg>
