<?xml version="1.0" encoding="utf-8"?>
<!-- Generator: Adobe Illustrator 16.0.0, SVG Export Plug-In . SVG Version: 6.00 Build 0)  -->
<!DOCTYPE svg PUBLIC "-//W3C//DTD SVG 1.1//EN" "http://www.w3.org/Graphics/SVG/1.1/DTD/svg11.dtd">
<svg version="1.1" id="Layer_1" xmlns="http://www.w3.org/2000/svg" xmlns:xlink="http://www.w3.org/1999/xlink" x="0px" y="0px"
	 width="599.8px" height="233.5px" viewBox="0 0 599.8 233.5" style="enable-background:new 0 0 599.8 233.5;" xml:space="preserve"
	>
<style type="text/css">
<![CDATA[
	.st0{fill:#FFFFFF;}
	.st1{fill-rule:evenodd;clip-rule:evenodd;fill:#FFFFFF;}
]]>
</style>
<path class="st0" d="M45.2,96.5h27.9c5.7,0,9.3,1.3,10.8,3.8c1.1,1.8,1.7,4.2,1.7,7V186c0,0.3-0.2,0.5-0.5,0.5H74.3
	c-0.3,0-0.5-0.2-0.5-0.5v-78.6H45.2c-0.3,0-0.5-0.2-0.5-0.5V97C44.7,96.6,44.9,96.5,45.2,96.5 M84.1,96.5H114c0.3,0,0.5,0.2,0.5,0.5
	v9.9c0,0.3-0.2,0.5-0.5,0.5H89.9c-0.3,0-0.8-1.9-1.4-5.8c-1.3-3-2.8-4.6-4.3-4.6V96.5z"/>
<path class="st0" d="M111.2,123.2h30.3c7.2,0,11.8,3.4,14,10.3c0.5,2.8,0.7,4.9,0.7,6c0,7-3.6,11.6-10.8,13.7
	c-1.8,0.6-8,1.3-18.5,1.9c-3.2,0.6-6.1,2.2-8.4,4.8c-1,1.8-1.4,3.6-1.4,5.3c0,5.7,1.9,9.1,5.8,10.3h21.4v-17.6c0-0.3,2-1,6-2.2
	c3.7-2,5.5-3.8,5.5-5.5h0.5V186c0,0.3-0.2,0.5-0.5,0.5h-28.9c-10.1,0-16.7-3.4-19.7-10.3c-1.3-3.2-1.9-6.4-1.9-9.6v-2.2
	c0-10.7,7-17.4,20.9-20c3.4-0.5,8.5-0.9,15.4-1.2c1.8-0.9,2.6-2.5,2.6-4.8c-0.3-2.9-1.6-4.3-3.8-4.3h-29.1c-0.3,0-0.5-0.2-0.5-0.5
	v-9.9C110.8,123.3,110.9,123.2,111.2,123.2"/>
<path class="st0" d="M168.5,123.5h11.1c0.3,0,0.5,0.2,0.5,0.4v7.2c0,0.3-0.2,0.4-0.5,0.4h-0.2c-5,0-8.6,1.2-10.8,3.7H168V124
	C168,123.7,168.2,123.5,168.5,123.5 M179.8,134.9l0.2,0.4V186c0,0.3-0.2,0.4-0.5,0.4h-11.1c-0.3,0-0.5-0.1-0.5-0.4v-43.8
	c0-3.6,3.1-6,9.4-7.1L179.8,134.9z"/>
<path class="st0" d="M192.3,123.2h23.8c8.9,0,16.3,3.5,22.1,10.6c2.4,4,3.6,8.8,3.6,14.4V186c0,0.3-0.2,0.5-0.5,0.5h-11.1
	c-0.3,0-0.5-0.2-0.5-0.5v-36.6c0-7.5-3.2-12.4-9.6-14.9c-1.6-0.5-3.6-0.7-6.3-0.7h-10.3V186c0,0.3-0.2,0.5-0.5,0.5h-10.8
	c-0.3,0-0.5-0.2-0.5-0.5v-62.3C191.8,123.3,192,123.2,192.3,123.2"/>
<path class="st0" d="M259.8,123.2h30.3c7.2,0,11.8,3.4,13.9,10.3c0.5,2.8,0.7,4.9,0.7,6c0,7-3.6,11.6-10.8,13.7
	c-1.8,0.6-8,1.3-18.5,1.9c-3.2,0.6-6.1,2.2-8.4,4.8c-1,1.8-1.4,3.6-1.4,5.3c0,5.7,1.9,9.1,5.8,10.3h21.4v-17.6c0-0.3,2-1,6-2.2
	c3.7-2,5.5-3.8,5.5-5.5h0.5V186c0,0.3-0.2,0.5-0.5,0.5h-28.9c-10.1,0-16.7-3.4-19.7-10.3c-1.3-3.2-1.9-6.4-1.9-9.6v-2.2
	c0-10.7,7-17.4,20.9-20c3.4-0.5,8.5-0.9,15.4-1.2c1.8-0.9,2.6-2.5,2.6-4.8c-0.3-2.9-1.6-4.3-3.8-4.3h-29.1c-0.3,0-0.5-0.2-0.5-0.5
	v-9.9C259.3,123.3,259.5,123.2,259.8,123.2"/>
<path class="st0" d="M316.9,151.3c7.7,1.5,11.5,4,11.5,7.7c0,9.2,3.3,14.6,9.9,16.4c1.1,0.2,2,0.2,2.6,0.2h17.6
	c0.3,0,0.5,0.2,0.5,0.5v9.9c0,0.3-0.2,0.5-0.5,0.5h-14.2c-12.8,0-21-4.2-24.5-12.5c-2.2-4.5-3.4-11-3.4-19.5
	C316.5,152.5,316.7,151.5,316.9,151.3 M341.9,123.2h16.6c0.3,0,0.5,0.2,0.5,0.5v9.9c0,0.3-0.2,0.5-0.5,0.5h-15.9
	c-7.5,0-12.2,4.7-13.9,14.2c-0.2,1.8-0.2,3.3-0.2,4.6h-0.5c0-1.7-3.2-3.3-9.6-4.8c-1,0-1.4-0.2-1.4-0.7c0-7.5,3-14,9.1-19.5
	C330.2,124.7,335.5,123.2,341.9,123.2"/>
<path class="st0" d="M376.4,123.2h30.3c7.2,0,11.8,3.4,13.9,10.3c0.5,2.8,0.7,4.9,0.7,6c0,7-3.6,11.6-10.8,13.7
	c-1.8,0.6-8,1.3-18.5,1.9c-3.3,0.6-6.1,2.2-8.4,4.8c-1,1.8-1.4,3.6-1.4,5.3c0,5.7,1.9,9.1,5.8,10.3h21.4v-17.6c0-0.3,2-1,6-2.2
	c3.7-2,5.5-3.8,5.5-5.5h0.5V186c0,0.3-0.2,0.5-0.5,0.5H392c-10.1,0-16.7-3.4-19.7-10.3c-1.3-3.2-1.9-6.4-1.9-9.6v-2.2
	c0-10.7,7-17.4,20.9-20c3.4-0.5,8.5-0.9,15.4-1.2c1.8-0.9,2.6-2.5,2.6-4.8c-0.3-2.9-1.6-4.3-3.8-4.3h-29.1c-0.3,0-0.5-0.2-0.5-0.5
	v-9.9C375.9,123.3,376.1,123.2,376.4,123.2"/>
<path class="st0" d="M433.4,123.2h23.8c8.9,0,16.3,3.5,22.1,10.6c2.4,4,3.6,8.8,3.6,14.4V186c0,0.3-0.2,0.5-0.5,0.5h-11.1
	c-0.3,0-0.5-0.2-0.5-0.5v-36.6c0-7.5-3.2-12.4-9.6-14.9c-1.6-0.5-3.6-0.7-6.3-0.7h-10.3V186c0,0.3-0.2,0.5-0.5,0.5h-10.8
	c-0.3,0-0.5-0.2-0.5-0.5v-62.3C433,123.3,433.2,123.2,433.4,123.2"/>
<path class="st1" d="M465.6,94c24.7,0,44.7,21,44.7,47c0-26,20-47,44.7-47c-24.7,0-44.7-21-44.7-47C510.3,73,490.3,94,465.6,94"/>
</svg>
