<?xml version="1.0" encoding="utf-8"?>
<!-- Generator: Adobe Illustrator 16.0.0, SVG Export Plug-In . SVG Version: 6.00 Build 0)  -->
<!DOCTYPE svg PUBLIC "-//W3C//DTD SVG 1.1//EN" "http://www.w3.org/Graphics/SVG/1.1/DTD/svg11.dtd">
<svg version="1.1" id="Layer_1" xmlns="http://www.w3.org/2000/svg" xmlns:xlink="http://www.w3.org/1999/xlink" x="0px" y="0px"
	 width="14.504px" height="12px" viewBox="10.986 0.042 14.504 12" enable-background="new 10.986 0.042 14.504 12"
	 xml:space="preserve">
<path d="M23.011,7.089c-1.134,0-2.089,0.763-2.382,1.804h-1.878V3.191h1.878c0.293,1.041,1.248,1.804,2.382,1.804
	c1.367,0,2.478-1.108,2.478-2.477s-1.11-2.477-2.478-2.477c-1.134,0-2.089,0.763-2.382,1.804h-3.226v3.523h-2.068V3.867h-4.35v4.35
	h4.35V6.715h2.068v3.523h3.226c0.293,1.041,1.248,1.804,2.382,1.804c1.367,0,2.478-1.108,2.478-2.477S24.379,7.089,23.011,7.089z"/>
</svg>
