<?xml version="1.0" encoding="utf-8"?>
<!-- Generator: Adobe Illustrator 16.0.0, SVG Export Plug-In . SVG Version: 6.00 Build 0)  -->
<!DOCTYPE svg PUBLIC "-//W3C//DTD SVG 1.1//EN" "http://www.w3.org/Graphics/SVG/1.1/DTD/svg11.dtd">
<svg version="1.1" id="Layer_1" xmlns="http://www.w3.org/2000/svg" xmlns:xlink="http://www.w3.org/1999/xlink" x="0px" y="0px"
	 width="32px" height="32px" viewBox="0 0 32 32" enable-background="new 0 0 32 32" xml:space="preserve">
<g>
	<g>
		<polygon points="12.113,17.089 12.113,19.673 14.696,19.672 19.473,14.895 16.89,12.312 		"/>
		<rect x="18.904" y="10.267" transform="matrix(-0.7073 0.707 -0.707 -0.7073 42.1649 6.7257)" width="1.571" height="3.652"/>
	</g>
	<path d="M20.651,15.622v5.029H11.35V11.35h4.632L17.33,10h-6.008c-0.728,0-1.32,0.593-1.32,1.321v9.359
		c0,0.729,0.592,1.32,1.32,1.32h9.359c0.728,0,1.32-0.592,1.32-1.32v-6.406L20.651,15.622z"/>
	<polygon fill="#FFFFFF" points="18.621,13.294 18.621,13.294 18.621,13.294 	"/>
</g>
</svg>
