<?xml version="1.0" encoding="utf-8"?>
<!-- Generator: Adobe Illustrator 16.0.0, SVG Export Plug-In . SVG Version: 6.00 Build 0)  -->
<!DOCTYPE svg PUBLIC "-//W3C//DTD SVG 1.1//EN" "http://www.w3.org/Graphics/SVG/1.1/DTD/svg11.dtd">
<svg version="1.1" id="Layer_1" xmlns="http://www.w3.org/2000/svg" xmlns:xlink="http://www.w3.org/1999/xlink" x="0px" y="0px"
	 width="12px" height="12px" viewBox="0 0 12 12" enable-background="new 0 0 12 12" xml:space="preserve">
<g>
	<path fill="#FFFFFF" d="M6,0C2.692,0,0,2.692,0,6c0,3.309,2.692,6,6,6c3.309,0,6-2.691,6-6C12,2.692,9.309,0,6,0z M6,10.65
		c-2.565,0-4.651-2.088-4.651-4.65c0-2.565,2.086-4.651,4.651-4.651c2.564,0,4.65,2.086,4.65,4.651C10.65,8.563,8.564,10.65,6,10.65
		z"/>
	<path fill="#FFFFFF" d="M6.773,2.852C6.393,2.713,5.934,2.69,5.55,2.783C4.337,3.052,4.17,3.835,4.17,4.267h0.643
		c0,0,0.07-0.585,0.737-0.865c0.224-0.094,0.736-0.094,0.959,0c0.445,0.21,0.55,0.491,0.55,0.865c0,1.159-1.404,1.053-1.404,2.273
		c0,0.194,0.003,0.769,0.003,0.769h0.665c0,0,0-0.572,0-0.769c0-0.741,1.512-0.776,1.512-2.273C7.831,3.789,7.57,3.134,6.773,2.852z
		"/>
	<path fill="#FFFFFF" d="M6.001,8.255c-0.28,0-0.51,0.228-0.51,0.506c0,0.279,0.229,0.513,0.51,0.513
		c0.278,0,0.508-0.231,0.508-0.513C6.509,8.48,6.279,8.255,6.001,8.255z"/>
</g>
</svg>
