<?xml version="1.0" encoding="utf-8"?>
<!-- Generator: Adobe Illustrator 16.0.0, SVG Export Plug-In . SVG Version: 6.00 Build 0)  -->
<!DOCTYPE svg PUBLIC "-//W3C//DTD SVG 1.1//EN" "http://www.w3.org/Graphics/SVG/1.1/DTD/svg11.dtd">
<svg version="1.1" id="Layer_1" xmlns="http://www.w3.org/2000/svg" xmlns:xlink="http://www.w3.org/1999/xlink" x="0px" y="0px"
	 width="32px" height="32px" viewBox="0 0 32 32" enable-background="new 0 0 32 32" xml:space="preserve">
<g>
	<path fill="#88A6CC" d="M20.199,9.219h-2.866V8.676c0-0.097-0.125-0.176-0.276-0.176h-2.112c-0.154,0-0.276,0.079-0.276,0.176
		v0.543H11.8c-0.605,0-1.096,0.55-1.096,1.228v0.387c0.025,0,0.054,0,0.08,0h10.512v-0.387C21.296,9.769,20.805,9.219,20.199,9.219z
		"/>
	<path fill="#88A6CC" d="M10.704,12.566v9.707c0,0.678,0.491,1.227,1.097,1.227H20.2c0.604,0,1.096-0.549,1.096-1.227v-9.707H10.784
		C10.758,12.566,10.729,12.566,10.704,12.566z M17.856,14.619h1.666v6.247h-1.666V14.619z M12.477,14.619h1.666v6.247h-1.666V14.619
		z"/>
</g>
</svg>
