<?xml version="1.0" encoding="utf-8"?>
<!-- Generator: Adobe Illustrator 16.0.0, SVG Export Plug-In . SVG Version: 6.00 Build 0)  -->
<!DOCTYPE svg PUBLIC "-//W3C//DTD SVG 1.1//EN" "http://www.w3.org/Graphics/SVG/1.1/DTD/svg11.dtd">
<svg version="1.1" id="Layer_1" xmlns="http://www.w3.org/2000/svg" xmlns:xlink="http://www.w3.org/1999/xlink" x="0px" y="0px"
	 width="32px" height="32px" viewBox="0 0 32 32" enable-background="new 0 0 32 32" xml:space="preserve">
<path d="M19.996,20.664h-7.993c-0.553,0-1.003-0.396-1.003-0.881v-6.262c0-0.487,0.45-0.884,1.003-0.884h0.075v-0.692
	c0-0.342,0.291-0.609,0.662-0.609h3.049c0.371,0,0.662,0.269,0.662,0.609v0.692h3.544c0.553,0,1.004,0.396,1.004,0.884v6.262
	C21,20.268,20.551,20.664,19.996,20.664z M11.902,19.738c0.019,0.012,0.052,0.025,0.101,0.025h7.993c0.05,0,0.083-0.014,0.102-0.025
	v-6.175c-0.019-0.01-0.052-0.022-0.102-0.022h-4.447v-1.302H12.98v1.302h-0.977c-0.049,0-0.083,0.013-0.101,0.022V19.738z"/>
</svg>
